<?xml version="1.0" encoding="UTF-8" standalone="no"?>
<!DOCTYPE svg PUBLIC "-//W3C//DTD SVG 1.1//EN" "http://www.w3.org/Graphics/SVG/1.1/DTD/svg11.dtd">
<svg
   xmlns="http://www.w3.org/2000/svg"
   width="1354.6px"
   height="762.0px"
   version="1.1"
   shape-rendering="geometricPrecision"
   text-rendering="geometricPrecision"
   image-rendering="optimizeQuality"
   fill-rule="evenodd"
   clip-rule="evenodd"
   viewBox="0 0 13547 7620"
   id="svg3821">
  <rect
   style="fill:#1d1d1d;stroke:#373435;stroke-width:20"
   y="0"
   id="rect4581"
   height="7637"
   width="13547"
   x="25" />
  <rect
   style="fill:#008f00;stroke:#373435;stroke-width:20"
   id="rect4583"
   height="1008"
   width="542"
   y="1566"
   x="34" />
  <rect
   style="fill:#db552d;stroke:#373435;stroke-width:20"
   id="rect4585"
   height="1016"
   width="525"
   y="2642"
   x="34" />
  <rect
   style="fill:#0099ab;stroke:#373435;stroke-width:20"
   id="rect4587"
   height="999"
   width="533"
   y="3734"
   x="34" />
  <g
   style="fill:#fafafa"
   id="text4589">
    <path
     d="m 1141.2068,845.1676 c -42.7189,0 -74.6547,-9.57728 -95.8073,-28.73187 -21.1528,-19.15453 -32.2803,-43.7523 -33.3827,-73.79336 l 38.6536,0 c 2.067,22.59972 11.4721,39.30829 28.2152,50.12574 16.7429,10.81756 36.9654,16.22631 60.6676,16.22628 22.4617,3e-5 40.5483,-4.61636 54.2598,-13.84918 13.7112,-9.23273 20.5669,-21.77276 20.5671,-37.62014 -2e-4,-16.67404 -7.0971,-28.80066 -21.2905,-36.37992 -14.1939,-7.57903 -38.6194,-15.05482 -73.2766,-22.4274 -34.6575,-7.3723 -59.5309,-17.60414 -74.6202,-30.69556 -15.0895,-13.09107 -22.6341,-30.5231 -22.6341,-52.29613 0,-24.52864 9.8184,-44.64782 29.4553,-60.3576 19.6368,-15.70921 45.716,-23.56396 78.2375,-23.56427 34.1749,3.1e-4 61.7354,7.92396 82.6817,23.77098 20.9457,15.84758 32.0388,38.2405 33.2793,67.17883 l -39.0671,0 c -3.9964,-36.65528 -29.0765,-54.98302 -75.2402,-54.98329 -22.3242,2.7e-4 -39.6184,4.20325 -51.8828,12.60895 -12.2645,8.40621 -18.3967,19.56822 -18.3966,33.48606 -10e-5,12.67806 4.9263,22.18644 14.7793,28.52517 9.8528,6.33911 28.2495,12.47133 55.19,18.39666 26.9403,5.92569 48.3341,11.7823 64.1816,17.56985 15.8471,5.78787 29.4207,14.77949 40.7207,26.97488 11.2996,12.19567 16.9495,28.55972 16.9498,49.09222 -3e-4,26.04478 -10.3699,47.67979 -31.109,64.90509 -20.7395,17.22535 -47.7833,25.83801 -81.1314,25.83801 z"
     style="fill:#fafafa"
     id="path4742" />
    <path
     d="m 1389.6652,840.41341 c -8.5439,1.65363 -17.8456,2.48044 -27.9051,2.48045 -15.9852,-10e-6 -27.6984,-2.85941 -35.1397,-8.57822 -7.4414,-5.7188 -12.0578,-13.05679 -13.8492,-22.01399 -1.7914,-8.95714 -2.6871,-21.15267 -2.6871,-36.58662 l 0,-124.43587 -27.0782,0 0,-30.5922 27.0782,0 0,-54.56989 38.8604,0 0,54.56989 35.5531,0 0,30.5922 -35.5531,0 0,126.50291 c -10e-5,15.02054 1.8947,24.56337 5.6843,28.62851 3.7895,4.06521 8.9916,6.0978 15.6062,6.09778 6.7522,2e-5 13.2289,-0.55119 19.4302,-1.65364 z"
     style="fill:#fafafa"
     id="path4744" />
    <path
     d="m 1560.8162,782.32956 0,-48.57546 -26.6649,0 c -56.4992,10e-5 -84.7487,15.36509 -84.7486,46.09501 -1e-4,11.16207 4.134,19.74028 12.4022,25.73466 8.2681,5.99445 19.4301,8.99165 33.4861,8.99163 12.8155,2e-5 25.2177,-2.89383 37.2067,-8.68158 11.9887,-5.78767 21.4282,-13.64242 28.3185,-23.56426 z m 0,35.13969 c -19.8438,18.46557 -45.4062,27.69835 -76.6873,27.69835 -21.7729,0 -39.6872,-5.89106 -53.743,-17.6732 -14.0559,-11.78211 -21.0839,-26.97484 -21.0838,-45.57825 -1e-4,-51.26251 44.1657,-76.89379 132.4973,-76.89392 l 19.0168,0 c -2e-4,-15.70936 -0.827,-27.11253 -2.4805,-34.20953 -1.6538,-7.09667 -6.2702,-12.98773 -13.8492,-17.6732 -7.5793,-4.6851 -19.637,-7.02775 -36.1732,-7.02794 -34.7263,1.9e-4 -52.6407,12.40243 -53.743,37.20674 l -38.8604,0 c 2.8938,-45.06129 34.4506,-67.59202 94.6705,-67.59224 28.1116,2.2e-4 50.0222,5.58123 65.7319,16.74303 15.7093,11.16222 23.564,33.07283 23.5642,65.7319 l 0,141.79901 -38.8603,0 z"
     style="fill:#fafafa"
     id="path4746" />
    <path
     d="m 1771.4476,656.24006 c -5.5122,-1.65345 -13.4359,-2.48026 -23.771,-2.48045 -19.8437,1.9e-4 -36.8623,10.40428 -51.0559,31.21232 l 0,155.02807 -39.0671,0 0,-219.31304 39.0671,0 0,30.5922 c 16.3985,-23.70186 35.4152,-35.55288 57.0504,-35.5531 5.5119,2.2e-4 11.4374,0.55143 17.7765,1.65363 z"
     style="fill:#fafafa"
     id="path4748" />
    <path
     d="m 1884.1014,840.41341 c -8.5439,1.65363 -17.8456,2.48044 -27.9051,2.48045 -15.9852,-10e-6 -27.6984,-2.85941 -35.1397,-8.57822 -7.4414,-5.7188 -12.0578,-13.05679 -13.8492,-22.01399 -1.7914,-8.95714 -2.6872,-21.15267 -2.6871,-36.58662 l 0,-124.43587 -27.0783,0 0,-30.5922 27.0783,0 0,-54.56989 38.8603,0 0,54.56989 35.5532,0 0,30.5922 -35.5532,0 0,126.50291 c 0,15.02054 1.8948,24.56337 5.6844,28.62851 3.7895,4.06521 8.9915,6.0978 15.6062,6.09778 6.7522,2e-5 13.2289,-0.55119 19.4302,-1.65364 z"
     style="fill:#fafafa"
     id="path4750" />
  </g>
  <g
   style="fill:#4e4e4e"
   id="text4591">
    <path
     d="m 7589.1964,1409.5837 c -21.7723,0 -39.4279,-7.1311 -52.9666,-21.3933 -13.5389,-14.2622 -20.3082,-33.2441 -20.3082,-56.9457 0,-23.7703 6.6832,-42.7694 20.0498,-56.9973 13.3665,-14.2276 30.9015,-21.3415 52.6049,-21.3417 18.2584,2e-4 33.4335,4.3925 45.5255,13.1771 12.0918,8.7849 18.8612,20.5495 20.3082,35.2939 l -20.7732,0 c -0.827,-9.7837 -5.2365,-17.4487 -13.2288,-22.9953 -7.9925,-5.5463 -18.5341,-8.3195 -31.625,-8.3196 -15.6403,10e-5 -28.2317,5.3398 -37.7742,16.0192 -9.5427,10.6795 -14.314,25.7341 -14.314,45.1637 0,19.3609 4.823,34.3983 14.469,45.1121 9.6459,10.714 22.2545,16.0709 37.8259,16.0709 21.8412,0 38.067,-7.2 48.6777,-21.6001 l 0,-23.0469 -39.9963,0 0,-18.0862 59.426,0 0,77.3055 -14.1589,0 -5.2708,-15.9158 c -10.2662,12.333 -26.4232,18.4995 -48.471,18.4995 z"
     style="fill:#4e4e4e"
     id="path4731" />
    <path
     d="m 7754.3491,1378.1655 0,-24.2872 -13.3321,0 c -28.2489,10e-5 -42.3734,7.6824 -42.3733,23.047 -10e-5,5.5809 2.0669,9.8699 6.2009,12.867 4.134,2.9971 9.7149,4.4957 16.7427,4.4957 6.4076,0 12.6086,-1.4469 18.6029,-4.3407 5.9942,-2.8938 10.7138,-6.821 14.1589,-11.7818 z m 0,17.5694 c -9.9216,9.2326 -22.7025,13.8488 -38.3427,13.8488 -10.8862,0 -19.8431,-2.9454 -26.8709,-8.8364 -7.0278,-5.8909 -10.5417,-13.4871 -10.5417,-22.7885 0,-25.6307 22.0824,-38.446 66.2471,-38.4461 l 9.5082,0 c -1e-4,-7.8545 -0.4135,-13.5559 -1.2402,-17.1044 -0.8269,-3.5482 -3.135,-6.4937 -6.9244,-8.8363 -3.7896,-2.3425 -9.8183,-3.5138 -18.0862,-3.5139 -17.3628,10e-5 -26.3197,6.201 -26.8709,18.6029 l -19.4297,0 c 1.4469,-22.5301 17.2249,-33.7952 47.3341,-33.7953 14.0555,10e-5 25.0105,2.7905 32.8652,8.3713 7.8545,5.581 11.7817,16.536 11.7818,32.8652 l 0,70.8978 -19.4297,0 z"
     style="fill:#4e4e4e"
     id="path4733" />
    <path
     d="m 7950.9201,1407 -19.5331,0 0,-70.8978 c -10e-5,-9.0947 -1.3092,-15.5713 -3.9273,-19.4298 -2.6183,-3.8583 -6.9934,-5.7874 -13.1254,-5.7875 -9.4394,10e-5 -18.7064,5.8565 -27.801,17.5694 l 0,78.5457 -19.4298,0 0,-70.8978 c 0,-9.0947 -1.3091,-15.5713 -3.9272,-19.4298 -2.6183,-3.8583 -7.0279,-5.7874 -13.2288,-5.7875 -9.4393,10e-5 -18.6719,5.8565 -27.6977,17.5694 l 0,78.5457 -19.5331,0 0,-109.6539 19.5331,0 0,13.9522 c 9.2325,-10.955 19.4641,-16.4325 30.6948,-16.4326 16.0536,10e-5 26.2852,6.6145 30.6949,19.8431 7.3032,-8.6124 13.5042,-14.0727 18.6029,-16.3809 5.0985,-2.308 10.0937,-3.4621 14.9857,-3.4622 22.4612,10e-5 33.6918,13.47 33.692,40.4097 z"
     style="fill:#4e4e4e"
     id="path4735" />
    <path
     d="m 8025.8485,1409.5837 c -16.1226,0 -29.0757,-5.0469 -38.8594,-15.1407 -9.7838,-10.0938 -14.6757,-24.1665 -14.6757,-42.2183 0,-17.9139 4.7369,-31.9522 14.2106,-42.115 9.4737,-10.1626 21.8584,-15.2439 37.1542,-15.244 15.6401,10e-5 28.1282,4.9953 37.4642,14.9857 9.3358,9.9905 14.0038,24.1149 14.0039,42.3733 l 0,4.6507 -82.5764,0 c 0.8268,12.6776 4.3235,22.0824 10.49,28.2145 6.1665,6.1321 13.7627,9.1981 22.7886,9.1981 6.821,0 12.9703,-1.7397 18.4479,-5.2192 5.4775,-3.4794 8.354,-8.4229 8.6297,-14.8306 l 20.1532,0 c -1.5159,11.2996 -6.6317,20.0154 -15.3474,26.1474 -8.7159,6.1321 -19.3437,9.1981 -31.8834,9.1981 z m 28.7312,-68.004 c -1.5848,-10.5416 -5.1331,-18.4306 -10.645,-23.6671 -5.512,-5.2363 -12.2642,-7.8544 -20.2565,-7.8545 -7.7857,10e-5 -14.469,2.601 -20.0498,7.8029 -5.581,5.202 -9.1293,13.1082 -10.6451,23.7187 z"
     style="fill:#4e4e4e"
     id="path4737" />
    <path
     d="m 8136.2259,1409.5837 c -29.9714,0 -45.6461,-11.7818 -47.0241,-35.3455 l 19.5331,0 c 0.1378,13.3665 9.2325,20.0498 27.2843,20.0498 8.0612,0 14.2105,-1.6708 18.4479,-5.0125 4.2373,-3.3416 6.3559,-7.5272 6.356,-12.5569 -10e-5,-4.9608 -2.0671,-8.4574 -6.201,-10.49 -4.134,-2.0325 -12.6604,-4.6679 -25.579,-7.9063 -12.9187,-3.2382 -22.358,-6.8554 -28.3178,-10.8517 -5.9598,-3.9961 -8.9397,-11.0239 -8.9397,-21.0833 0,-9.0947 3.7033,-16.622 11.11,-22.5819 7.4067,-5.9597 17.3111,-8.9396 29.7131,-8.9397 28.7311,10e-5 43.4067,10.2317 44.0269,30.6948 l -19.4297,0 c -0.6891,-10.3349 -8.4403,-15.5023 -23.2537,-15.5024 -6.5455,10e-5 -11.9714,1.2403 -16.2776,3.7206 -4.3062,2.4804 -6.4593,6.0977 -6.4593,10.8517 0,4.2718 1.6536,7.3551 4.9608,9.2498 3.3071,1.8948 11.5923,4.4441 24.8556,7.6478 13.2631,3.2039 23.1157,6.9417 29.5579,11.2135 6.4421,4.2718 9.6631,11.6441 9.6632,22.1168 -1e-4,9.9905 -3.979,18.2756 -11.9369,24.8556 -7.9579,6.5799 -18.6546,9.8698 -32.09,9.8698 z"
     style="fill:#4e4e4e"
     id="path4739" />
  </g>
  <g
   style="fill:#4e4e4e"
   id="text4593">
    <path
     d="m 12347.288,1349.9902 -26.664,-70.2777 -25.424,70.2777 z m 46.094,62.0098 -22.633,0 -17.57,-46.0939 -63.456,0 -16.743,46.0939 -21.187,0 58.186,-151.5105 21.6,0 z"
     style="fill:#4e4e4e"
     id="path4722" />
    <path
     d="m 12427.281,1315.4715 c 8.681,-10.4038 19.12,-15.6057 31.315,-15.6058 14.331,10e-5 25.424,5.0814 33.278,15.244 7.855,10.1628 11.782,23.8911 11.782,41.1849 0,17.9828 -4.392,32.1934 -13.177,42.6317 -8.785,10.4383 -19.86,15.6574 -33.227,15.6574 -11.85,0 -21.841,-3.6861 -29.971,-11.0584 l 0,50.6413 -19.533,0 0,-151.8205 19.533,0 z m 0,70.4844 c 8.337,8.8881 17.914,13.3321 28.731,13.3321 8.406,0 15.089,-3.6 20.05,-10.8 4.961,-7.2 7.441,-17.9312 7.441,-32.1934 0,-13.5043 -2.343,-23.7531 -7.028,-30.7465 -4.685,-6.9933 -11.23,-10.4899 -19.636,-10.49 -10.817,10e-5 -20.67,6.2699 -29.558,18.8096 z"
     style="fill:#4e4e4e"
     id="path4724" />
    <path
     d="m 12545.099,1315.4715 c 8.682,-10.4038 19.12,-15.6057 31.315,-15.6058 14.331,10e-5 25.424,5.0814 33.279,15.244 7.854,10.1628 11.782,23.8911 11.782,41.1849 0,17.9828 -4.393,32.1934 -13.177,42.6317 -8.785,10.4383 -19.861,15.6574 -33.227,15.6574 -11.851,0 -21.841,-3.6861 -29.972,-11.0584 l 0,50.6413 -19.533,0 0,-151.8205 19.533,0 z m 0,70.4844 c 8.337,8.8881 17.914,13.3321 28.732,13.3321 8.405,0 15.089,-3.6 20.049,-10.8 4.961,-7.2 7.442,-17.9312 7.442,-32.1934 0,-13.5043 -2.343,-23.7531 -7.028,-30.7465 -4.685,-6.9933 -11.231,-10.4899 -19.637,-10.49 -10.817,10e-5 -20.669,6.2699 -29.558,18.8096 z"
     style="fill:#4e4e4e"
     id="path4726" />
    <path
     d="m 12682.554,1414.5837 c -29.971,0 -45.646,-11.7818 -47.024,-35.3455 l 19.533,0 c 0.138,13.3665 9.233,20.0498 27.285,20.0498 8.061,0 14.21,-1.6708 18.448,-5.0125 4.237,-3.3416 6.356,-7.5272 6.356,-12.5569 0,-4.9608 -2.067,-8.4574 -6.201,-10.49 -4.134,-2.0325 -12.661,-4.6679 -25.579,-7.9063 -12.919,-3.2382 -22.358,-6.8554 -28.318,-10.8517 -5.96,-3.9961 -8.94,-11.0239 -8.94,-21.0833 0,-9.0947 3.703,-16.622 11.11,-22.5819 7.407,-5.9597 17.311,-8.9396 29.713,-8.9397 28.731,10e-5 43.407,10.2317 44.027,30.6948 l -19.43,0 c -0.689,-10.3349 -8.44,-15.5023 -23.253,-15.5024 -6.546,10e-5 -11.972,1.2403 -16.278,3.7206 -4.306,2.4804 -6.459,6.0977 -6.459,10.8517 0,4.2718 1.653,7.3551 4.961,9.2498 3.307,1.8948 11.592,4.4441 24.855,7.6478 13.263,3.2039 23.116,6.9417 29.558,11.2135 6.442,4.2718 9.663,11.6441 9.663,22.1168 0,9.9905 -3.979,18.2756 -11.936,24.8556 -7.958,6.5799 -18.655,9.8698 -32.091,9.8698 z"
     style="fill:#4e4e4e"
     id="path4728" />
  </g>
  <g
   style="fill:#c5c5c5"
   id="text4595">
    <path
     d="M 11991.708,525.48947 11949.748,677 l -19.223,0 -36.379,-131.6674 -36.483,131.6674 -19.223,0 -41.856,-151.51053 21.083,0 30.281,123.39944 34.106,-123.39944 24.08,0 34.106,123.39944 30.281,-123.39944 z"
     style="fill:#c5c5c5"
     id="path4694" />
    <path
     d="m 12027.57,677 -19.533,0 0,-109.65394 19.533,0 z m 0,-130.42721 -19.533,0 0,-21.08332 19.533,0 z"
     style="fill:#c5c5c5"
     id="path4696" />
    <path
     d="m 12147.042,677 -23.253,0 -35.656,-55.70544 -12.195,12.0919 0,43.61354 -19.533,0 0,-151.51053 19.533,0 0,85.88353 42.27,-44.02694 24.597,0 -41.547,40.8231 z"
     style="fill:#c5c5c5"
     id="path4698" />
    <path
     d="m 12181.768,677 -19.533,0 0,-109.65394 19.533,0 z m 0,-130.42721 -19.533,0 0,-21.08332 19.533,0 z"
     style="fill:#c5c5c5"
     id="path4700" />
    <path
     d="m 12230.135,580.47146 c 8.682,-10.40375 19.12,-15.60568 31.315,-15.60579 14.331,1.1e-4 25.424,5.08146 33.279,15.24407 7.854,10.1628 11.782,23.89106 11.782,41.18482 0,17.98287 -4.393,32.19343 -13.177,42.63171 -8.785,10.43832 -19.861,15.65747 -33.227,15.65747 -11.851,0 -21.842,-3.68613 -29.972,-11.05841 l 0,50.64131 -19.533,0 0,-151.82058 19.533,0 z m 0,70.48444 c 8.337,8.88808 17.914,13.33211 28.732,13.3321 8.405,10e-6 15.089,-3.6 20.049,-10.80004 4.961,-7.19999 7.441,-17.93111 7.442,-32.1934 -0,-13.50428 -2.343,-23.75311 -7.028,-30.74651 -4.685,-6.99323 -11.231,-10.48989 -19.637,-10.48999 -10.817,1e-4 -20.67,6.26997 -29.558,18.80963 z"
     style="fill:#c5c5c5"
     id="path4702" />
    <path
     d="m 12375.032,679.58374 c -16.123,0 -29.076,-5.0469 -38.86,-15.14072 -9.784,-10.09379 -14.676,-24.16655 -14.676,-42.21831 0,-17.91386 4.737,-31.95217 14.211,-42.11497 9.474,-10.16261 21.858,-15.24396 37.154,-15.24407 15.64,1.1e-4 28.128,4.99534 37.464,14.9857 9.336,9.99055 14.004,24.11498 14.004,42.37334 l 0,4.65073 -82.576,0 c 0.827,12.67759 4.323,22.08239 10.49,28.21444 6.166,6.1321 13.763,9.19813 22.789,9.19812 6.821,10e-6 12.97,-1.73971 18.447,-5.21916 5.478,-3.47941 8.354,-8.42296 8.63,-14.83067 l 20.153,0 c -1.516,11.29958 -6.631,20.01539 -15.347,26.14745 -8.716,6.13208 -19.344,9.19812 -31.883,9.19812 z m 28.731,-68.00404 c -1.585,-10.54159 -5.133,-18.4306 -10.645,-23.66706 -5.512,-5.23629 -12.265,-7.85448 -20.257,-7.85458 -7.786,1e-4 -14.469,2.60106 -20.05,7.8029 -5.581,5.20201 -9.129,13.10825 -10.645,23.71874 z"
     style="fill:#c5c5c5"
     id="path4704" />
    <path
     d="m 12515.69,645.47837 0,-52.08821 c -8.406,-8.88797 -18.017,-13.332 -28.834,-13.3321 -8.337,1e-4 -15.003,3.60011 -19.998,10.80004 -4.996,7.2001 -7.493,17.93122 -7.493,32.1934 0,13.50439 2.36,23.75322 7.079,30.74651 4.72,6.99334 11.248,10.49 19.585,10.48999 10.886,10e-6 20.773,-6.26986 29.661,-18.80963 z m 0,18.39623 c -8.681,10.47276 -19.119,15.70914 -31.315,15.70914 -14.331,0 -25.424,-5.09858 -33.278,-15.29574 -7.855,-10.19714 -11.782,-23.94263 -11.782,-41.2365 0,-17.91386 4.392,-32.08997 13.177,-42.52836 8.785,-10.43821 19.826,-15.65736 33.124,-15.65747 11.85,1.1e-4 21.875,3.6518 30.074,10.95506 l 0,-50.33126 19.43,0 0,151.51053 -19.43,0 z"
     style="fill:#c5c5c5"
     id="path4706" />
    <path
     d="m 12583.591,677 -19.533,0 0,-109.65394 19.533,0 z m 0,-130.42721 -19.533,0 0,-21.08332 19.533,0 z"
     style="fill:#c5c5c5"
     id="path4708" />
    <path
     d="m 12681.877,648.16546 0,-24.28716 -13.333,0 c -28.249,5e-5 -42.373,7.68237 -42.373,23.04696 0,5.58091 2.067,9.86991 6.201,12.86703 4.134,2.99715 9.715,4.49572 16.743,4.49571 6.407,10e-6 12.608,-1.44688 18.603,-4.34069 5.994,-2.89377 10.713,-6.82105 14.159,-11.78185 z m 0,17.56943 c -9.922,9.23257 -22.703,13.84885 -38.343,13.84885 -10.886,0 -19.843,-2.94546 -26.871,-8.83639 -7.028,-5.89092 -10.542,-13.48711 -10.542,-22.78859 0,-25.63065 22.083,-38.44599 66.247,-38.44606 l 9.509,0 c -0,-7.85449 -0.414,-13.55594 -1.241,-17.10436 -0.827,-3.54825 -3.135,-6.49371 -6.924,-8.83639 -3.79,-2.34249 -9.818,-3.51379 -18.086,-3.51389 -17.363,1e-4 -26.32,6.20107 -26.871,18.60293 l -19.43,0 c 1.447,-22.53011 17.225,-33.79521 47.334,-33.79532 14.056,1.1e-4 25.011,2.79055 32.865,8.37132 7.855,5.58098 11.782,16.53603 11.782,32.86518 l 0,70.89783 -19.429,0 z"
     style="fill:#c5c5c5"
     id="path4710" />
  </g>
  <g
   style="fill:#c5c5c5"
   id="text4597">
    <path
     d="m 12518.6,862 -14.62,0 0,-14.62026 14.62,0 z"
     style="fill:#c5c5c5"
     id="path4713" />
    <path
     d="m 12572.089,784.61958 c 10.793,8e-5 19.41,3.44713 25.853,10.34116 6.442,6.89417 9.663,16.641 9.664,29.24053 -0,12.55206 -3.222,22.287 -9.664,29.20487 -6.443,6.91788 -15.06,10.37682 -25.853,10.37682 -10.745,0 -19.339,-3.45894 -25.782,-10.37682 -6.442,-6.91787 -9.663,-16.65281 -9.663,-29.20487 0,-12.59953 3.221,-22.34636 9.663,-29.24053 6.443,-6.89403 15.037,-10.34108 25.782,-10.34116 z m 0,68.60826 c 6.419,10e-6 11.625,-2.4367 15.619,-7.31013 3.993,-4.8734 5.99,-12.11221 5.99,-21.71644 0,-9.6517 -1.997,-16.91428 -5.99,-21.78776 -3.994,-4.87335 -9.2,-7.31006 -15.619,-7.31013 -6.419,7e-5 -11.625,2.43678 -15.619,7.31013 -3.994,4.87348 -5.991,12.13606 -5.99,21.78776 -0,9.60423 1.996,16.84304 5.99,21.71644 3.994,4.87343 9.2,7.31014 15.619,7.31013 z"
     style="fill:#c5c5c5"
     id="path4715" />
    <path
     d="m 12662.021,798.59798 c -1.901,-0.57048 -4.635,-0.85576 -8.201,-0.85582 -6.847,6e-5 -12.719,3.58975 -17.616,10.76907 l 0,53.48877 -13.479,0 0,-75.66878 13.479,0 0,10.55512 c 5.658,-8.17777 12.219,-12.26668 19.684,-12.26676 1.902,8e-5 3.946,0.19026 6.133,0.57055 z"
     style="fill:#c5c5c5"
     id="path4717" />
    <path
     d="m 12732.841,856.15189 c -0,24.34332 -10.984,36.51497 -32.95,36.515 -9.509,-3e-5 -17.009,-2.06826 -22.5,-6.20469 -5.492,-4.13649 -8.238,-9.69931 -8.238,-16.6885 l 13.907,0 c 0,8.27291 5.563,12.40938 16.689,12.4094 6.276,-2e-5 11.125,-1.72355 14.549,-5.17059 3.423,-3.44706 5.135,-10.21041 5.135,-20.29007 l 0,-3.77987 c -5.991,7.22693 -13.194,10.84039 -21.61,10.84039 -9.889,0 -17.544,-3.51837 -22.964,-10.55512 -5.42,-7.03673 -8.131,-16.52206 -8.131,-28.45602 0,-12.3618 3.031,-22.14429 9.094,-29.34751 6.062,-7.20308 13.681,-10.80465 22.857,-10.80473 8.178,8e-5 15.096,2.51999 20.754,7.55975 l 0,-5.84811 13.408,0 z m -13.408,-15.90399 0,-35.94445 c -5.801,-6.13332 -12.434,-9.2 -19.898,-9.20007 -5.753,7e-5 -10.353,2.48432 -13.8,7.45277 -3.447,4.96857 -5.171,12.37378 -5.171,22.21567 0,9.31896 1.629,16.39135 4.885,21.21721 3.257,4.82589 7.762,7.23882 13.515,7.23881 7.512,10e-6 14.335,-4.32663 20.469,-12.97994 z"
     style="fill:#c5c5c5"
     id="path4719" />
  </g>
  <rect
   style="fill:#603cbb;stroke:#373435;stroke-width:20"
   id="rect4599"
   height="1012"
   width="516"
   y="4813"
   x="34" />
  <rect
   style="fill:#db552d;stroke:#373435;stroke-width:20"
   id="rect4601"
   height="1003"
   width="533"
   y="5897"
   x="34" />
  <rect
   style="fill:#92009b;stroke:#373435;stroke-width:20"
   id="rect4603"
   height="1024"
   width="2100"
   y="1566"
   x="635" />
  <rect
   style="fill:#92009b;stroke:#373435;stroke-width:20"
   id="rect4605"
   height="1024"
   width="1016"
   y="2642"
   x="643" />
  <rect
   style="fill:#008f00;stroke:#373435;stroke-width:20"
   id="rect4607"
   height="1024"
   width="2091"
   y="3717"
   x="635" />
  <rect
   style="fill:#0950b9;stroke:#373435;stroke-width:20"
   id="rect4609"
   height="1024"
   width="1024"
   y="2642"
   x="1710" />
  <rect
   style="fill:#0099ab;stroke:#373435;stroke-width:20"
   id="rect4611"
   height="991"
   width="2083"
   y="4826"
   x="643" />
  <rect
   style="fill:#0099ab;stroke:#373435;stroke-width:20"
   id="rect4613"
   height="1008"
   width="2091"
   y="5893"
   x="635" />
  <rect
   style="fill:#b11a41;stroke:#373435;stroke-width:20"
   id="rect4615"
   height="999"
   width="2100"
   y="5893"
   x="2794" />
  <rect
   style="fill:#603cbb;stroke:#373435;stroke-width:20"
   id="rect4617"
   height="1008"
   width="2083"
   y="4801"
   x="2794" />
  <rect
   style="fill:#0099ab;stroke:#373435;stroke-width:20"
   id="rect4619"
   height="1016"
   width="2091"
   y="3725"
   x="2786" />
  <rect
   style="fill:#db552d;stroke:#373435;stroke-width:20"
   id="rect4621"
   height="1008"
   width="2091"
   y="2650"
   x="2794" />
  <rect
   style="fill:#b11a41;stroke:#373435;stroke-width:20"
   id="rect4623"
   height="991"
   width="2091"
   y="1575"
   x="2794" />
  <rect
   style="fill:#db552d;stroke:#373435;stroke-width:20"
   id="rect4625"
   height="1016"
   width="2100"
   y="1566"
   x="4945" />
  <rect
   style="fill:#80387b;stroke:#373435;stroke-width:20"
   id="rect4627"
   height="1024"
   width="1024"
   y="2642"
   x="4953" />
  <rect
   style="fill:#008f00;stroke:#373435;stroke-width:20"
   id="rect4629"
   height="1016"
   width="2100"
   y="1566"
   x="7510" />
  <rect
   style="fill:#008f00;stroke:#373435;stroke-width:20"
   id="rect4631"
   height="1008"
   width="2091"
   y="2642"
   x="7518" />
  <rect
   style="fill:#151656;stroke:#373435;stroke-width:20"
   id="rect4633"
   height="1016"
   width="2091"
   y="3725"
   x="7518" />
  <rect
   style="fill:#439cec;stroke:#373435;stroke-width:20"
   id="rect4635"
   height="999"
   width="2100"
   y="4818"
   x="7510" />
  <rect
   style="fill:#13aca5;stroke:#373435;stroke-width:20"
   id="rect4637"
   height="999"
   width="2074"
   y="5893"
   x="7527" />
  <rect
   style="fill:#ffda46;stroke:#373435;stroke-width:20"
   id="rect4639"
   height="999"
   width="2091"
   y="1566"
   x="9669" />
  <rect
   style="fill:#7a171a;stroke:#373435;stroke-width:20"
   id="rect4641"
   height="1016"
   width="2091"
   y="2642"
   x="9677" />
  <rect
   style="fill:#000000;stroke:#373435;stroke-width:20"
   id="rect4643"
   height="1016"
   width="1016"
   y="3725"
   x="9677" />
  <rect
   style="fill:#ffffff;stroke:#373435;stroke-width:20"
   id="rect4645"
   height="356"
   width="356"
   y="508"
   x="12793" />
  <rect
   style="fill:#0067a0;stroke:#373435;stroke-width:20"
   id="rect4647"
   height="1001"
   width="1287"
   y="1566"
   x="12243" />
  <rect
   style="fill:#ffffff;stroke:#373435;stroke-width:20"
   id="rect4649"
   height="1010"
   width="1295"
   y="2642"
   x="12234" />
  <rect
   style="fill:#000000;stroke:#373435;stroke-width:20"
   id="rect4651"
   height="1001"
   width="1287"
   y="3734"
   x="12243" />
</svg>
